{"title":"WWE/WWF-The Rock Vs R.V.D","uid":6339237,"size":169701376,"categoryP":"video","categoryS":"movie_clips","magnet":"?xt=urn:btih:dff2d6c391c951120b57d1629977afa7dac053e5&amp;dn=WWE%2FWWF-The+Rock+Vs+R.V.D&amp;tr=udp%3A%2F%2Ftracker.openbittorrent.com%3A80&amp;tr=udp%3A%2F%2Fopen.demonii.com%3A1337&amp;tr=udp%3A%2F%2Ftracker.coppersurfer.tk%3A6969&amp;tr=udp%3A%2F%2Fexodus.desync.com%3A6969","seeders":0,"leechers":0,"uploader":"legendkiller27","files":1,"time":1303585278,"description":"        **********************WWE-The Rock Vs R.V.D**********************\n\n\n\nFormat                           : AVI\n\nFormat/Info                      : Audio Video Interleave\n\nFile size                        : 162 MiB\n\nDuration                         : 11min. 33sec.\n\nOverall bit rate                 : 1 958 Kbps\n\nWriting application              : FairUse Wizard - http://fairusewizard.com\n\nWriting library                  : The best and REALLY easy backup tool\n\n\nVideo\n\n\nID                               : 0\n\nFormat                           : MPEG-4 Visual\n\nFormat profile                   : Advanced Simple@L5\n\nFormat settings, BVOP            : 2\n\nFormat settings, QPel            : No\n\nFormat settings, GMC             : No warppoints\n\nFormat settings, Matrix          : Default (MPEG)\n\nCodec ID                         : XVID\n\nCodec ID/Hint                    : XviD\n\nDuration                         : 11mn 33s\n\nBit rate                         : 1 755 Kbps\n\nWidth                            : 640 pixels\n\nHeight                           : 464 pixels\n\nDisplay aspect ratio             : 1.379\n\nFrame rate                       : 29.970 fps\n\nColor space                      : YUV\n\nChroma subsampling               : 4:2:0\n\nBit depth                        : 8 bits\n\nScan type                        : Progressive\n\nCompression mode                 : Lossy\n\nBits/(Pixel*Frame)               : 0.197\n\nStream size                      : 145 MiB (90%)\n\nWriting library                  : XviD 1.1.0 Beta2 (UTC 2005-04-04)\n\n\nAudio\n\n\nID                               : 1\n\nFormat                           : MPEG Audio\n\nFormat version                   : Version 1\n\nFormat profile                   : Layer 3\n\nMode                             : Joint stereo\n\nCodec ID                         : 55\n\nCodec ID/Hint                    : MP3\n\nDuration                         : 11mn 33s\n\nBit rate mode                    : Constant\n\nBit rate                         : 192 Kbps\n\nChannel(s)                       : 2 channels\n\nSampling rate                    : 48.0 KHz\n\nCompression mode                 : Lossy\n\nStream size                      : 15.9 MiB (10%)\n\nAlignment                        : Aligned on interleaves\n\nInterleave, duration             : 33 ms (1.00 video frame)\n\nInterleave, preload duration     : 504 ms\n\nWriting library                  : LAME3.96r\n\nEncoding settings                : -m j -V 4 -q 2 -lowpass 19.5 -b 192\n\n\n\n------------------------Download, SEED And Enjoy---------------------------\n\t\t\n\n\n","torrent":{"xt":"urn:btih:dff2d6c391c951120b57d1629977afa7dac053e5","amp;dn":"WWE%2FWWF-The+Rock+Vs+R.V.D","amp;tr":["udp%3A%2F%2Ftracker.openbittorrent.com%3A80","udp%3A%2F%2Fopen.demonii.com%3A1337","udp%3A%2F%2Ftracker.coppersurfer.tk%3A6969","udp%3A%2F%2Fexodus.desync.com%3A6969"],"infoHash":"dff2d6c391c951120b57d1629977afa7dac053e5","infoHashBuffer":{"type":"Buffer","data":[223,242,214,195,145,201,81,18,11,87,209,98,153,119,175,167,218,192,83,229]},"announce":[],"urlList":[]}}